<svg width="24" height="24" viewBox="0 0 24 24" fill="none" xmlns="http://www.w3.org/2000/svg">
<g id="clarity:mobile-solid" clip-path="url(#clip0_1121_2033)">
<path id="Vector" d="M15.1429 4H7.14286C6.83975 4 6.54906 4.12041 6.33474 4.33474C6.12041 4.54906 6 4.83975 6 5.14286V18.8571C6 19.1602 6.12041 19.4509 6.33474 19.6653C6.54906 19.8796 6.83975 20 7.14286 20H15.1429C15.446 20 15.7367 19.8796 15.951 19.6653C16.1653 19.4509 16.2857 19.1602 16.2857 18.8571V5.14286C16.2857 4.83975 16.1653 4.54906 15.951 4.33474C15.7367 4.12041 15.446 4 15.1429 4ZM11.7143 18.8571H10.5714V17.7143H11.7143V18.8571ZM7.14286 16.5714V5.14286H15.1429V16.5714H7.14286Z" fill="#212121"/>
</g>
<defs>
<clipPath id="clip0_1121_2033">
<rect width="24" height="24" fill="white"/>
</clipPath>
</defs>
</svg>
