<svg width="22" height="24" viewBox="0 0 22 24" fill="none" xmlns="http://www.w3.org/2000/svg">
<g id="uil:facebook">
<path id="Vector" d="M17.12 4H2.88C2.64661 4 2.42278 4.09271 2.25775 4.25775C2.09271 4.42278 2 4.64661 2 4.88V19.12C2 19.3534 2.09271 19.5772 2.25775 19.7423C2.42278 19.9073 2.64661 20 2.88 20H10.544V13.8H8.464V11.4H10.544V9.6C10.5009 9.17741 10.5508 8.7505 10.6902 8.34923C10.8295 7.94796 11.055 7.58204 11.3508 7.27713C11.6465 6.97222 12.0054 6.73571 12.4023 6.58419C12.7991 6.43267 13.2243 6.3698 13.648 6.4C14.2707 6.39617 14.893 6.42822 15.512 6.496V8.656H14.24C13.232 8.656 13.04 9.136 13.04 9.832V11.376H15.44L15.128 13.776H13.04V20H17.12C17.2356 20 17.35 19.9772 17.4568 19.933C17.5635 19.8888 17.6605 19.824 17.7423 19.7423C17.824 19.6605 17.8888 19.5635 17.933 19.4568C17.9772 19.35 18 19.2356 18 19.12V4.88C18 4.76444 17.9772 4.65001 17.933 4.54324C17.8888 4.43647 17.824 4.33946 17.7423 4.25775C17.6605 4.17603 17.5635 4.11121 17.4568 4.06699C17.35 4.02276 17.2356 4 17.12 4Z" fill="#212121"/>
</g>
</svg>
