<svg width="40" height="41" viewBox="0 0 40 41" fill="none" xmlns="http://www.w3.org/2000/svg">
<g id="basil:facebook-solid">
<path id="Vector" d="M23.2458 5.70435C21.2113 5.70435 19.2602 6.51253 17.8216 7.95111C16.383 9.38968 15.5748 11.3408 15.5748 13.3753V17.6461H11.4699C11.2642 17.6461 11.0967 17.812 11.0967 18.0193V23.6584C11.0967 23.8641 11.2625 24.0316 11.4699 24.0316H15.5748V35.6002C15.5748 35.8059 15.7407 35.9734 15.948 35.9734H21.5872C21.7928 35.9734 21.9604 35.8075 21.9604 35.6002V24.0316H26.1018C26.2727 24.0316 26.4219 23.9155 26.4634 23.7497L27.8732 18.1105C27.8871 18.0555 27.8882 17.998 27.8765 17.9425C27.8648 17.8869 27.8406 17.8348 27.8058 17.79C27.7709 17.7452 27.7263 17.709 27.6753 17.6841C27.6244 17.6591 27.5684 17.6461 27.5116 17.6461H21.9604V13.3753C21.9604 13.2065 21.9936 13.0393 22.0582 12.8834C22.1228 12.7274 22.2175 12.5857 22.3368 12.4664C22.4562 12.347 22.5979 12.2523 22.7539 12.1877C22.9098 12.1231 23.077 12.0899 23.2458 12.0899H27.5581C27.7637 12.0899 27.9312 11.924 27.9312 11.7167V6.07753C27.9312 5.87186 27.7654 5.70435 27.5581 5.70435H23.2458Z" fill="black"/>
</g>
</svg>
