<svg width="24" height="25" viewBox="0 0 24 25" fill="none" xmlns="http://www.w3.org/2000/svg">
<g id="ri:instagram-fill">
<path id="Vector" d="M13.028 2.50104C13.7578 2.49824 14.4875 2.50558 15.217 2.52304L15.411 2.53004C15.635 2.53804 15.856 2.54804 16.123 2.56004C17.187 2.61004 17.913 2.77804 18.55 3.02504C19.21 3.27904 19.766 3.62304 20.322 4.17904C20.8304 4.67865 21.2239 5.28299 21.475 5.95004C21.722 6.58704 21.89 7.31404 21.94 8.37804C21.952 8.64404 21.962 8.86604 21.97 9.09004L21.976 9.28404C21.9938 10.0132 22.0015 10.7426 21.999 11.472L22 12.218V13.528C22.0025 14.2578 21.9948 14.9875 21.977 15.717L21.971 15.911C21.963 16.135 21.953 16.356 21.941 16.623C21.891 17.687 21.721 18.413 21.475 19.05C21.2247 19.7178 20.8311 20.3226 20.322 20.822C19.822 21.3304 19.2173 21.7238 18.55 21.975C17.913 22.222 17.187 22.39 16.123 22.44C15.856 22.452 15.635 22.462 15.411 22.47L15.217 22.476C14.4875 22.4938 13.7578 22.5015 13.028 22.499L12.282 22.5H10.973C10.2433 22.5025 9.51355 22.4948 8.78403 22.477L8.59003 22.471C8.35264 22.4624 8.1153 22.4524 7.87803 22.441C6.81403 22.391 6.08803 22.221 5.45003 21.975C4.78271 21.7244 4.17827 21.3309 3.67903 20.822C3.17007 20.3223 2.77625 19.7176 2.52503 19.05C2.27803 18.413 2.11003 17.687 2.06003 16.623C2.04889 16.3858 2.03889 16.1484 2.03003 15.911L2.02503 15.717C2.00659 14.9875 1.99826 14.2578 2.00003 13.528V11.472C1.99724 10.7426 2.00457 10.0132 2.02203 9.28404L2.02903 9.09004C2.03703 8.86604 2.04703 8.64404 2.05903 8.37804C2.10903 7.31304 2.27703 6.58804 2.52403 5.95004C2.7754 5.28266 3.16999 4.67849 3.68003 4.18004C4.17892 3.6708 4.78299 3.27662 5.45003 3.02504C6.08803 2.77804 6.81303 2.61004 7.87803 2.56004L8.59003 2.53004L8.78403 2.52504C9.51321 2.50662 10.2426 2.49828 10.972 2.50004L13.028 2.50104ZM12 7.50104C11.3375 7.49167 10.6798 7.61407 10.065 7.86111C9.45022 8.10816 8.89067 8.47492 8.41887 8.9401C7.94707 9.40528 7.57243 9.95958 7.31671 10.5708C7.061 11.182 6.92932 11.838 6.92932 12.5005C6.92932 13.1631 7.061 13.8191 7.31671 14.4303C7.57243 15.0415 7.94707 15.5958 8.41887 16.061C8.89067 16.5262 9.45022 16.8929 10.065 17.14C10.6798 17.387 11.3375 17.5094 12 17.5C13.3261 17.5 14.5979 16.9733 15.5356 16.0356C16.4732 15.0979 17 13.8261 17 12.5C17 11.174 16.4732 9.90219 15.5356 8.96451C14.5979 8.02683 13.3261 7.50104 12 7.50104ZM12 9.50104C12.3985 9.4937 12.7945 9.56584 13.1648 9.71325C13.5351 9.86066 13.8724 10.0804 14.1568 10.3596C14.4412 10.6388 14.6672 10.9719 14.8215 11.3394C14.9757 11.7069 15.0552 12.1015 15.0553 12.5C15.0554 12.8986 14.976 13.2932 14.8219 13.6608C14.6677 14.0283 14.4419 14.3615 14.1575 14.6408C13.8732 14.9201 13.536 15.1399 13.1658 15.2874C12.7955 15.435 12.3995 15.5073 12.001 15.5C11.2054 15.5 10.4423 15.184 9.87971 14.6214C9.3171 14.0588 9.00103 13.2957 9.00103 12.5C9.00103 11.7044 9.3171 10.9413 9.87971 10.3787C10.4423 9.81611 11.2054 9.50004 12.001 9.50004L12 9.50104ZM17.25 6.00104C16.9274 6.01396 16.6223 6.15119 16.3986 6.38402C16.1749 6.61684 16.05 6.92718 16.05 7.25004C16.05 7.57291 16.1749 7.88325 16.3986 8.11607C16.6223 8.34889 16.9274 8.48613 17.25 8.49904C17.5815 8.49904 17.8995 8.36735 18.1339 8.13293C18.3683 7.89851 18.5 7.58056 18.5 7.24904C18.5 6.91752 18.3683 6.59958 18.1339 6.36516C17.8995 6.13074 17.5815 5.99904 17.25 5.99904V6.00104Z" fill="white"/>
</g>
</svg>
