<svg width="22" height="25" viewBox="0 0 22 25" fill="none" xmlns="http://www.w3.org/2000/svg">
<g id="uil:facebook">
<path id="Vector" d="M20.9 2.5H3.1C2.80826 2.5 2.52847 2.61589 2.32218 2.82218C2.11589 3.02847 2 3.30826 2 3.6V21.4C2 21.6917 2.11589 21.9715 2.32218 22.1778C2.52847 22.3841 2.80826 22.5 3.1 22.5H12.68V14.75H10.08V11.75H12.68V9.5C12.6261 8.97176 12.6885 8.43813 12.8627 7.93654C13.0369 7.43495 13.3188 6.97755 13.6885 6.59641C14.0582 6.21528 14.5068 5.91964 15.0028 5.73024C15.4989 5.54083 16.0304 5.46225 16.56 5.5C17.3383 5.49521 18.1163 5.53528 18.89 5.62V8.32H17.3C16.04 8.32 15.8 8.92 15.8 9.79V11.72H18.8L18.41 14.72H15.8V22.5H20.9C21.0445 22.5 21.1875 22.4715 21.321 22.4163C21.4544 22.361 21.5757 22.28 21.6778 22.1778C21.78 22.0757 21.861 21.9544 21.9163 21.821C21.9715 21.6875 22 21.5445 22 21.4V3.6C22 3.45555 21.9715 3.31251 21.9163 3.17905C21.861 3.04559 21.78 2.92433 21.6778 2.82218C21.5757 2.72004 21.4544 2.63901 21.321 2.58373C21.1875 2.52845 21.0445 2.5 20.9 2.5Z" fill="white"/>
</g>
</svg>
