<svg width="40" height="41" viewBox="0 0 40 41" fill="none" xmlns="http://www.w3.org/2000/svg">
<g id="basil:instagram-solid">
<path id="Vector" d="M20.1807 15.1575C18.7637 15.1575 17.4047 15.7204 16.4028 16.7223C15.4008 17.7243 14.8379 19.0833 14.8379 20.5003C14.8379 21.9173 15.4008 23.2762 16.4028 24.2782C17.4047 25.2802 18.7637 25.8431 20.1807 25.8431C21.5977 25.8431 22.9567 25.2802 23.9586 24.2782C24.9606 23.2762 25.5235 21.9173 25.5235 20.5003C25.5235 19.0833 24.9606 17.7243 23.9586 16.7223C22.9567 15.7204 21.5977 15.1575 20.1807 15.1575Z" fill="black"/>
<path id="Vector_2" fill-rule="evenodd" clip-rule="evenodd" d="M11.5839 5.83858C17.2983 5.20517 23.0652 5.20517 28.7795 5.83858C31.9014 6.1871 34.4183 8.64479 34.7849 11.7781C35.4625 17.5725 35.4625 23.426 34.7849 29.2203C34.4183 32.3537 31.9014 34.8114 28.7812 35.1615C23.0663 35.7951 17.2988 35.7951 11.5839 35.1615C8.46209 34.8114 5.94522 32.3537 5.57863 29.222C4.90087 23.4271 4.90087 17.573 5.57863 11.7781C5.94522 8.64479 8.46209 6.1871 11.5839 5.83858ZM28.4014 10.6356C27.9654 10.6356 27.5473 10.8088 27.239 11.1171C26.9307 11.4254 26.7575 11.8435 26.7575 12.2795C26.7575 12.7155 26.9307 13.1337 27.239 13.442C27.5473 13.7503 27.9654 13.9235 28.4014 13.9235C28.8374 13.9235 29.2556 13.7503 29.5639 13.442C29.8722 13.1337 30.0454 12.7155 30.0454 12.2795C30.0454 11.8435 29.8722 11.4254 29.5639 11.1171C29.2556 10.8088 28.8374 10.6356 28.4014 10.6356ZM12.373 20.4992C12.373 18.4282 13.1957 16.4421 14.6601 14.9776C16.1246 13.5132 18.1107 12.6905 20.1817 12.6905C22.2527 12.6905 24.2389 13.5132 25.7033 14.9776C27.1677 16.4421 27.9904 18.4282 27.9904 20.4992C27.9904 22.5702 27.1677 24.5564 25.7033 26.0208C24.2389 27.4852 22.2527 28.3079 20.1817 28.3079C18.1107 28.3079 16.1246 27.4852 14.6601 26.0208C13.1957 24.5564 12.373 22.5702 12.373 20.4992Z" fill="black"/>
</g>
</svg>
