<svg width="41" height="41" viewBox="0 0 41 41" fill="none" xmlns="http://www.w3.org/2000/svg">
<g id="basil:linkedin-solid">
<path id="Vector" d="M9.18318 5.70435C8.29699 5.70435 7.4471 6.05638 6.82047 6.68302C6.19383 7.30965 5.8418 8.15954 5.8418 9.04573C5.8418 9.93192 6.19383 10.7818 6.82047 11.4085C7.4471 12.0351 8.29699 12.3871 9.18318 12.3871C10.0694 12.3871 10.9193 12.0351 11.5459 11.4085C12.1725 10.7818 12.5246 9.93192 12.5246 9.04573C12.5246 8.15954 12.1725 7.30965 11.5459 6.68302C10.9193 6.05638 10.0694 5.70435 9.18318 5.70435ZM6.03835 15.1389C5.98622 15.1389 5.93623 15.1596 5.89937 15.1964C5.8625 15.2333 5.8418 15.2833 5.8418 15.3354V35.7768C5.8418 35.8853 5.92985 35.9734 6.03835 35.9734H12.328C12.3801 35.9734 12.4301 35.9527 12.467 35.9158C12.5039 35.879 12.5246 35.829 12.5246 35.7768V15.3354C12.5246 15.2833 12.5039 15.2333 12.467 15.1964C12.4301 15.1596 12.3801 15.1389 12.328 15.1389H6.03835ZM16.2591 15.1389C16.2069 15.1389 16.1569 15.1596 16.1201 15.1964C16.0832 15.2333 16.0625 15.2833 16.0625 15.3354V35.7768C16.0625 35.8853 16.1506 35.9734 16.2591 35.9734H22.5487C22.6009 35.9734 22.6509 35.9527 22.6877 35.9158C22.7246 35.879 22.7453 35.829 22.7453 35.7768V24.7699C22.7453 23.988 23.0559 23.2381 23.6088 22.6852C24.1617 22.1322 24.9116 21.8216 25.6936 21.8216C26.4755 21.8216 27.2254 22.1322 27.7783 22.6852C28.3312 23.2381 28.6418 23.988 28.6418 24.7699V35.7768C28.6418 35.8853 28.7299 35.9734 28.8384 35.9734H35.1281C35.1802 35.9734 35.2302 35.9527 35.2671 35.9158C35.3039 35.879 35.3246 35.829 35.3246 35.7768V22.2226C35.3246 18.4063 32.0068 15.4219 28.2094 15.7662C27.0345 15.8732 25.8836 16.164 24.7989 16.6279L22.7453 17.5085V15.3354C22.7453 15.2833 22.7246 15.2333 22.6877 15.1964C22.6509 15.1596 22.6009 15.1389 22.5487 15.1389H16.2591Z" fill="black"/>
</g>
</svg>
