<svg width="25" height="25" viewBox="0 0 25 25" fill="none" xmlns="http://www.w3.org/2000/svg">
<g id="material-symbols:account-box-sharp">
<path id="Vector" d="M12.5 13.5C13.4667 13.5 14.2917 13.1583 14.975 12.475C15.6583 11.7917 16 10.9667 16 10C16 9.03333 15.6583 8.20833 14.975 7.525C14.2917 6.84167 13.4667 6.5 12.5 6.5C11.5333 6.5 10.7083 6.84167 10.025 7.525C9.34167 8.20833 9 9.03333 9 10C9 10.9667 9.34167 11.7917 10.025 12.475C10.7083 13.1583 11.5333 13.5 12.5 13.5ZM7.5 21.5C5.29086 21.5 3.5 19.7091 3.5 17.5V7.5C3.5 5.29086 5.29086 3.5 7.5 3.5H17.5C19.7091 3.5 21.5 5.29086 21.5 7.5V17.5C21.5 19.7091 19.7091 21.5 17.5 21.5H7.5ZM5.5 18.69C5.5 19.1373 5.86266 19.5 6.31003 19.5H18.69C19.1373 19.5 19.5 19.1373 19.5 18.69C19.5 18.4725 19.4136 18.263 19.2534 18.116C18.4105 17.3429 17.4471 16.7253 16.363 16.263C15.1717 15.755 13.884 15.5007 12.5 15.5C11.1167 15.5 9.829 15.7543 8.637 16.263C7.55238 16.7258 6.58892 17.3435 5.74662 18.116C5.58635 18.263 5.5 18.4725 5.5 18.69Z" fill="white"/>
</g>
</svg>
