<svg width="41" height="40" viewBox="0 0 41 40" fill="none" xmlns="http://www.w3.org/2000/svg">
<rect x="0.833252" y="0.5" width="39" height="39" rx="3.5" stroke="#022B9E"/>
<path d="M29.3333 20C29.3333 20.1989 29.2542 20.3897 29.1136 20.5303C28.9729 20.671 28.7822 20.75 28.5833 20.75H21.0833V28.25C21.0833 28.4489 21.0042 28.6397 20.8636 28.7803C20.7229 28.921 20.5322 29 20.3333 29C20.1343 29 19.9436 28.921 19.8029 28.7803C19.6623 28.6397 19.5833 28.4489 19.5833 28.25V20.75H12.0833C11.8843 20.75 11.6936 20.671 11.5529 20.5303C11.4123 20.3897 11.3333 20.1989 11.3333 20C11.3333 19.8011 11.4123 19.6103 11.5529 19.4697C11.6936 19.329 11.8843 19.25 12.0833 19.25H19.5833V11.75C19.5833 11.5511 19.6623 11.3603 19.8029 11.2197C19.9436 11.079 20.1343 11 20.3333 11C20.5322 11 20.7229 11.079 20.8636 11.2197C21.0042 11.3603 21.0833 11.5511 21.0833 11.75V19.25H28.5833C28.7822 19.25 28.9729 19.329 29.1136 19.4697C29.2542 19.6103 29.3333 19.8011 29.3333 20Z" fill="#022B9E"/>
</svg>
