<svg width="43" height="43" viewBox="0 0 43 43" fill="none" xmlns="http://www.w3.org/2000/svg">
<path id="Union" fill-rule="evenodd" clip-rule="evenodd" d="M43 21.5C43 33.3741 33.3741 43 21.5 43C9.62588 43 0 33.3741 0 21.5C0 9.62588 9.62588 0 21.5 0C33.3741 0 43 9.62588 43 21.5ZM27.7241 38.9269C25.7791 39.6216 23.6837 40 21.5 40C19.6288 40 17.8224 39.7222 16.12 39.2055L21.5 26L27.7241 38.9269ZM28.3575 38.6874L38.8047 14.9439C39.5772 16.9817 40 19.1915 40 21.5C40 29.2944 35.1797 35.963 28.3575 38.6874ZM15.8031 39.1063L3.99684 15.4937C3.35072 17.377 3 19.3975 3 21.5C3 29.7295 8.37343 36.704 15.8031 39.1063ZM6.53355 10.6233L15.5 29.5L19.5 21L11.855 5.71005C9.77438 6.98369 7.96495 8.65703 6.53355 10.6233ZM15.5146 3.98967C17.392 3.34812 19.4053 3 21.5 3C23.297 3 25.0342 3.25622 26.677 3.73411L21.5 15.5L15.5146 3.98967ZM30.3896 5.27183L24 21L28 29.5L36.0533 10.0772C34.5139 8.11862 32.5876 6.47844 30.3896 5.27183Z" fill="#424242"/>
</svg>
