<svg width="20" height="20" viewBox="0 0 20 20" fill="none" xmlns="http://www.w3.org/2000/svg">
<g id="TiktokLogo">
<path id="Vector" d="M17.5 5.625C16.5058 5.62397 15.5525 5.22855 14.8495 4.52551C14.1465 3.82247 13.751 2.86924 13.75 1.875C13.75 1.70924 13.6842 1.55027 13.5669 1.43306C13.4497 1.31585 13.2908 1.25 13.125 1.25H10C9.83424 1.25 9.67527 1.31585 9.55806 1.43306C9.44085 1.55027 9.375 1.70924 9.375 1.875V12.1875C9.37487 12.4671 9.29972 12.7415 9.15739 12.9822C9.01506 13.2229 8.81076 13.4209 8.5658 13.5557C8.32084 13.6905 8.0442 13.7571 7.76474 13.7486C7.48527 13.74 7.21322 13.6566 6.97695 13.5071C6.74069 13.3576 6.54888 13.1474 6.42152 12.8985C6.29416 12.6496 6.23592 12.3711 6.25288 12.092C6.26983 11.8129 6.36137 11.5435 6.51793 11.3119C6.67449 11.0802 6.89034 10.8948 7.14297 10.775C7.24983 10.7243 7.34011 10.6443 7.40331 10.5443C7.46651 10.4443 7.50004 10.3284 7.5 10.2102V6.875C7.50004 6.78364 7.48005 6.69338 7.44144 6.61058C7.40283 6.52778 7.34653 6.45446 7.27652 6.39576C7.2065 6.33707 7.12447 6.29444 7.03621 6.27088C6.94794 6.24731 6.85558 6.24339 6.76562 6.25938C3.97734 6.75625 1.875 9.30469 1.875 12.1875C1.875 13.7622 2.50056 15.2724 3.61405 16.3859C4.72755 17.4994 6.23778 18.125 7.8125 18.125C9.38722 18.125 10.8974 17.4994 12.0109 16.3859C13.1244 15.2724 13.75 13.7622 13.75 12.1875V9.08516C14.9075 9.6891 16.1944 10.003 17.5 10C17.6658 10 17.8247 9.93415 17.9419 9.81694C18.0592 9.69973 18.125 9.54076 18.125 9.375V6.25C18.125 6.08424 18.0592 5.92527 17.9419 5.80806C17.8247 5.69085 17.6658 5.625 17.5 5.625ZM16.875 8.72188C15.6536 8.61365 14.4841 8.17774 13.4898 7.46016C13.3964 7.39297 13.2862 7.35289 13.1714 7.34434C13.0566 7.33579 12.9417 7.3591 12.8394 7.4117C12.737 7.4643 12.6511 7.54415 12.5912 7.64244C12.5314 7.74074 12.4998 7.85365 12.5 7.96875V12.1875C12.5 13.4307 12.0061 14.623 11.1271 15.5021C10.248 16.3811 9.0557 16.875 7.8125 16.875C6.5693 16.875 5.37701 16.3811 4.49794 15.5021C3.61886 14.623 3.125 13.4307 3.125 12.1875C3.125 10.1641 4.425 8.34922 6.25 7.6875V9.84922C5.84598 10.1192 5.51878 10.4892 5.30031 10.9232C5.08184 11.3572 4.97954 11.8405 5.00339 12.3258C5.02724 12.8111 5.17641 13.282 5.43638 13.6925C5.69635 14.103 6.05825 14.4392 6.48679 14.6682C6.91533 14.8972 7.3959 15.0114 7.88166 14.9994C8.36742 14.9875 8.8418 14.8499 9.25857 14.6C9.67533 14.3502 10.0203 13.9966 10.2597 13.5738C10.4992 13.151 10.625 12.6734 10.625 12.1875V2.5H12.5391C12.6796 3.60085 13.1816 4.62389 13.9664 5.40862C14.7511 6.19335 15.7742 6.69538 16.875 6.83594V8.72188Z" fill="white"/>
</g>
</svg>
