<svg width="40" height="41" viewBox="0 0 40 41" fill="none" xmlns="http://www.w3.org/2000/svg">
<g id="ic:baseline-tiktok">
<path id="Vector" d="M28.1214 10.4465C26.9719 9.1342 26.3384 7.44891 26.3389 5.70435H21.1427V26.5563C21.1026 27.6848 20.6262 28.7536 19.8139 29.5377C19.0015 30.3219 17.9165 30.7602 16.7873 30.7604C14.3995 30.7604 12.4151 28.8097 12.4151 26.3882C12.4151 23.4958 15.2066 21.3265 18.0822 22.2178V16.9039C12.2806 16.1303 7.20215 20.6371 7.20215 26.3882C7.20215 31.988 11.8434 35.9734 16.7705 35.9734C22.0508 35.9734 26.3389 31.6853 26.3389 26.3882V15.8108C28.446 17.324 30.9757 18.1359 33.5698 18.1315V12.9353C33.5698 12.9353 30.4084 13.0866 28.1214 10.4465Z" fill="black"/>
</g>
</svg>
