<svg width="24" height="24" viewBox="0 0 24 24" fill="none" xmlns="http://www.w3.org/2000/svg">
<g id="ri:instagram-fill">
<path id="Vector" d="M10.8221 4.00098C11.4058 3.99874 11.9896 4.00461 12.5732 4.01858L12.7284 4.02418C12.9076 4.03058 13.0844 4.03858 13.298 4.04818C14.1492 4.08818 14.7299 4.22258 15.2395 4.42017C15.7675 4.62336 16.2123 4.89855 16.6571 5.34334C17.0638 5.74301 17.3785 6.22647 17.5794 6.76009C17.777 7.26967 17.9114 7.85125 17.9514 8.70242C17.961 8.91522 17.969 9.09281 17.9754 9.27201L17.9802 9.4272C17.9944 10.0105 18.0006 10.594 17.9986 11.1775L17.9994 11.7743V12.8223C18.0014 13.4061 17.9953 13.9898 17.981 14.5734L17.9762 14.7286C17.9698 14.9078 17.9618 15.0846 17.9522 15.2982C17.9122 16.1494 17.7762 16.7302 17.5794 17.2397C17.3792 17.7739 17.0643 18.2578 16.6571 18.6573C16.2571 19.0639 15.7734 19.3787 15.2395 19.5797C14.7299 19.7772 14.1492 19.9116 13.298 19.9516C13.0844 19.9612 12.9076 19.9692 12.7284 19.9756L12.5732 19.9804C11.9896 19.9947 11.4058 20.0008 10.8221 19.9988L10.2253 19.9996H9.17813C8.59436 20.0016 8.01059 19.9955 7.42699 19.9812L7.27179 19.9764C7.08189 19.9696 6.89202 19.9616 6.70221 19.9524C5.85104 19.9124 5.27026 19.7764 4.75988 19.5797C4.22604 19.3791 3.7425 19.0643 3.34313 18.6573C2.93598 18.2575 2.62093 17.7738 2.41996 17.2397C2.22237 16.7302 2.08797 16.1494 2.04797 15.2982C2.03906 15.1084 2.03106 14.9185 2.02397 14.7286L2.01997 14.5734C2.00522 13.9898 1.99856 13.4061 1.99997 12.8223V11.1775C1.99774 10.594 2.00361 10.0105 2.01757 9.4272L2.02317 9.27201C2.02957 9.09281 2.03757 8.91522 2.04717 8.70242C2.08717 7.85045 2.22157 7.27047 2.41916 6.76009C2.62025 6.2262 2.93591 5.74288 3.34393 5.34414C3.74303 4.93675 4.22627 4.62142 4.75988 4.42017C5.27026 4.22258 5.85024 4.08818 6.70221 4.04818L7.27179 4.02418L7.42699 4.02018C8.01032 4.00544 8.59382 3.99878 9.17733 4.00018L10.8221 4.00098ZM9.9997 8.00085C9.46972 7.99335 8.94354 8.09126 8.45174 8.28889C7.95993 8.48652 7.5123 8.77992 7.13487 9.15205C6.75745 9.52418 6.45774 9.96761 6.25318 10.4566C6.04861 10.9455 5.94327 11.4703 5.94327 12.0003C5.94327 12.5303 6.04861 13.0551 6.25318 13.5441C6.45774 14.033 6.75745 14.4764 7.13487 14.8486C7.5123 15.2207 7.95993 15.5141 8.45174 15.7117C8.94354 15.9094 9.46972 16.0073 9.9997 15.9998C11.0605 15.9998 12.0779 15.5784 12.828 14.8282C13.5782 14.0781 13.9996 13.0607 13.9996 11.9999C13.9996 10.9391 13.5782 9.9217 12.828 9.17158C12.0779 8.42146 11.0605 8.00085 9.9997 8.00085ZM9.9997 9.60079C10.3185 9.59492 10.6353 9.65263 10.9315 9.77055C11.2277 9.88848 11.4975 10.0643 11.7251 10.2876C11.9526 10.511 12.1334 10.7774 12.2568 11.0714C12.3802 11.3654 12.4438 11.6811 12.4438 11.9999C12.4439 12.3188 12.3804 12.6344 12.2571 12.9285C12.1338 13.2225 11.9531 13.489 11.7256 13.7124C11.4982 13.9359 11.2285 14.1117 10.9322 14.2298C10.636 14.3478 10.3193 14.4056 10.0005 14.3998C9.364 14.3998 8.75357 14.147 8.3035 13.6969C7.85343 13.2468 7.60058 12.6364 7.60058 11.9999C7.60058 11.3634 7.85343 10.753 8.3035 10.3029C8.75357 9.85284 9.364 9.59999 10.0005 9.59999L9.9997 9.60079ZM14.1996 6.80089C13.9415 6.81122 13.6974 6.92101 13.5185 7.10726C13.3395 7.29351 13.2396 7.54177 13.2396 7.80006C13.2396 8.05834 13.3395 8.3066 13.5185 8.49285C13.6974 8.6791 13.9415 8.78889 14.1996 8.79922C14.4648 8.79922 14.7191 8.69387 14.9066 8.50634C15.0942 8.31881 15.1995 8.06446 15.1995 7.79925C15.1995 7.53405 15.0942 7.2797 14.9066 7.09217C14.7191 6.90464 14.4648 6.79929 14.1996 6.79929V6.80089Z" fill="white"/>
</g>
</svg>
