<svg width="22" height="22" viewBox="0 0 22 22" fill="none" xmlns="http://www.w3.org/2000/svg">
<g id="material-symbols:mail-outline">
<path id="Vector" d="M4.6 17.8C4.16 17.8 3.7832 17.6432 3.4696 17.3296C3.156 17.016 2.99947 16.6395 3 16.2V6.6C3 6.16 3.1568 5.7832 3.4704 5.4696C3.784 5.156 4.16053 4.99947 4.6 5H17.4C17.84 5 18.2168 5.1568 18.5304 5.4704C18.844 5.784 19.0005 6.16053 19 6.6V16.2C19 16.64 18.8432 17.0168 18.5296 17.3304C18.216 17.644 17.8395 17.8005 17.4 17.8H4.6ZM11 12.2L4.6 8.2V16.2H17.4V8.2L11 12.2ZM11 10.6L17.4 6.6H4.6L11 10.6ZM4.6 8.2V6.6V16.2V8.2Z" fill="white"/>
</g>
</svg>
