<svg width="16" height="16" viewBox="0 0 16 16" fill="none" xmlns="http://www.w3.org/2000/svg">
<g id="carbon:search">
<path id="Vector" d="M14.5 13.7931L10.724 10.0171C11.6314 8.92771 12.0839 7.53048 11.9873 6.11601C11.8908 4.70154 11.2526 3.37875 10.2056 2.42282C9.15861 1.46688 7.78337 0.951395 6.36598 0.983601C4.94859 1.01581 3.59818 1.59322 2.59567 2.59573C1.59316 3.59823 1.01575 4.94864 0.983543 6.36604C0.951337 7.78343 1.46682 9.15867 2.42276 10.2057C3.37869 11.2527 4.70149 11.8908 6.11595 11.9874C7.53042 12.0839 8.92766 11.6315 10.017 10.7241L13.793 14.5001L14.5 13.7931ZM2 6.50006C2 5.61004 2.26392 4.74001 2.75839 3.99999C3.25285 3.25997 3.95566 2.68319 4.77792 2.3426C5.60019 2.00201 6.50499 1.91289 7.37791 2.08652C8.25082 2.26016 9.05264 2.68874 9.68198 3.31808C10.3113 3.94741 10.7399 4.74924 10.9135 5.62215C11.0872 6.49507 10.9981 7.39987 10.6575 8.22213C10.3169 9.0444 9.74009 9.7472 9.00007 10.2417C8.26004 10.7361 7.39002 11.0001 6.5 11.0001C5.30693 10.9987 4.16311 10.5242 3.31948 9.68058C2.47585 8.83695 2.00132 7.69313 2 6.50006Z" fill="white"/>
</g>
</svg>
