<svg width="24" height="24" viewBox="0 0 24 24" fill="none" xmlns="http://www.w3.org/2000/svg">
<g id="material-symbols:account-box-sharp">
<path id="Vector" d="M12 13C12.9667 13 13.7917 12.6583 14.475 11.975C15.1583 11.2917 15.5 10.4667 15.5 9.5C15.5 8.53333 15.1583 7.70833 14.475 7.025C13.7917 6.34167 12.9667 6 12 6C11.0333 6 10.2083 6.34167 9.525 7.025C8.84167 7.70833 8.5 8.53333 8.5 9.5C8.5 10.4667 8.84167 11.2917 9.525 11.975C10.2083 12.6583 11.0333 13 12 13ZM7 21C4.79086 21 3 19.2091 3 17V7C3 4.79086 4.79086 3 7 3H17C19.2091 3 21 4.79086 21 7V17C21 19.2091 19.2091 21 17 21H7ZM5 18.19C5 18.6373 5.36266 19 5.81003 19H18.19C18.6373 19 19 18.6373 19 18.19C19 17.9725 18.9136 17.763 18.7534 17.616C17.9105 16.8429 16.9471 16.2253 15.863 15.763C14.6717 15.255 13.384 15.0007 12 15C10.6167 15 9.329 15.2543 8.137 15.763C7.05238 16.2258 6.08892 16.8435 5.24662 17.616C5.08635 17.763 5 17.9725 5 18.19Z" fill="white"/>
</g>
</svg>
